<?xml version="1.0" standalone="no"?>
<!DOCTYPE svg PUBLIC "-//W3C//DTD SVG 20010904//EN"
 "http://www.w3.org/TR/2001/REC-SVG-20010904/DTD/svg10.dtd">
<svg version="1.0" xmlns="http://www.w3.org/2000/svg"
 width="512.000000pt" height="512.000000pt" viewBox="0 0 512.000000 512.000000"
 preserveAspectRatio="xMidYMid meet">

<g transform="translate(0.000000,512.000000) scale(0.100000,-0.100000)"
fill="#9DA3AF" stroke="none">
<path d="M2145 4599 c-220 -94 -403 -173 -407 -177 -3 -4 464 -206 1040 -449
l1045 -442 409 173 c225 95 409 176 409 181 0 9 -2065 885 -2084 884 -7 0
-192 -77 -412 -170z"/>
<path d="M980 4105 c-278 -118 -504 -217 -503 -221 2 -7 2069 -884 2084 -884
8 0 989 413 1014 427 9 6 -341 159 -1023 447 -570 242 -1044 440 -1052 442 -8
2 -242 -93 -520 -211z"/>
<path d="M320 2502 l0 -1247 1066 -450 c585 -247 1069 -452 1074 -453 7 -2 9
443 8 1244 l-3 1247 -1059 448 c-583 247 -1066 451 -1073 453 -11 4 -13 -221
-13 -1242z"/>
<path d="M3725 3295 l-1070 -453 -3 -1247 c-2 -1133 -1 -1247 14 -1241 69 27
691 291 698 297 4 4 -6 28 -24 54 -43 63 -104 196 -127 275 -26 93 -25 348 1
440 43 148 128 299 228 399 174 177 393 270 636 271 250 0 466 -91 645 -273
l77 -79 0 1006 c0 553 -1 1006 -2 1005 -2 0 -484 -204 -1073 -454z"/>
<path d="M3902 1890 c-245 -65 -449 -270 -512 -516 -69 -270 35 -575 252 -739
234 -177 522 -202 783 -67 96 50 237 191 287 287 64 123 83 203 83 340 -1 181
-47 317 -156 453 -92 115 -242 210 -390 246 -91 22 -254 20 -347 -4z m243
-275 c24 -23 25 -28 25 -174 l0 -150 156 -3 156 -3 24 -28 c26 -31 31 -66 12
-100 -22 -43 -36 -46 -195 -47 l-153 0 0 -153 c0 -140 -2 -155 -20 -175 -43
-46 -109 -41 -140 11 -17 28 -20 50 -20 175 l0 142 -150 0 c-147 0 -152 1
-175 25 -35 34 -34 93 1 126 24 23 33 24 174 27 l149 3 3 149 c3 141 4 150 27
174 33 35 92 36 126 1z"/>
</g>
</svg>
